<svg width="2260" height="2099" viewBox="0 0 2260 2099" fill="none" xmlns="http://www.w3.org/2000/svg">
<path d="M1364.96 1953.87C1390.88 1993.52 1425.36 2027.07 1465.78 2051.89C1359.7 2082.5 1246.93 2099 1130 2099C1013.07 2099 900.296 2082.51 794.216 2051.89C834.634 2027.07 869.116 1993.52 895.037 1953.87C970.21 1970.28 1048.85 1979 1130 1979C1211.15 1979 1289.79 1970.28 1364.96 1953.87Z" fill="#F77833"/>
<path d="M605 1581C719.875 1581 813 1674.12 813 1789C813 1903.88 719.875 1997 605 1997C490.125 1997 397 1903.88 397 1789C397 1674.12 490.125 1581 605 1581Z" fill="#F77833"/>
<path d="M1648 1581C1762.88 1581 1856 1674.12 1856 1789C1856 1903.88 1762.88 1997 1648 1997C1533.12 1997 1440 1903.88 1440 1789C1440 1674.12 1533.12 1581 1648 1581Z" fill="#F77833"/>
<path d="M307.159 330.18C308.702 379.539 321.422 426.081 342.874 467.358C202.941 627.79 120 831.092 120 1049.5C120 1267.91 202.942 1471.21 342.874 1631.64C321.422 1672.92 308.702 1719.46 307.159 1768.82C116.707 1580.96 0 1327.89 0 1049.5C0 771.11 116.707 518.036 307.159 330.18Z" fill="#F77833"/>
<path d="M1952.84 330.18C2143.29 518.036 2260 771.11 2260 1049.5C2260 1327.89 2143.29 1580.96 1952.84 1768.82C1951.3 1719.46 1938.58 1672.92 1917.12 1631.64C2057.06 1471.21 2140 1267.91 2140 1049.5C2140 831.092 2057.06 627.79 1917.12 467.358C1938.58 426.081 1951.3 379.539 1952.84 330.18Z" fill="#F77833"/>
<path d="M1450 582.544C1501.86 618.758 1564.95 640 1633 640C1633.04 640 1633.09 639.999 1633.13 639.999V1459C1633.09 1459 1633.04 1459 1633 1459C1570.58 1459 1512.34 1476.87 1463.11 1507.77L810.134 820.551L810.133 1516.55C758.249 1480.28 695.111 1459 627.003 1459V639.999C689.023 639.998 746.922 622.354 795.954 591.812L1450 1280.16V582.544Z" fill="#F77833"/>
<path d="M605 89C719.875 89 813 182.125 813 297C813 411.875 719.875 505 605 505C490.125 505 397 411.875 397 297C397 182.125 490.125 89 605 89Z" fill="#F77833"/>
<path d="M1648 89C1762.88 89 1856 182.125 1856 297C1856 411.875 1762.88 505 1648 505C1533.12 505 1440 411.875 1440 297C1440 182.125 1533.12 89 1648 89Z" fill="#F77833"/>
<path d="M1130 0C1246.93 0 1359.7 16.4941 1465.78 47.1133C1425.36 71.9333 1390.88 105.481 1364.96 145.133C1289.79 128.715 1211.15 120 1130 120C1048.85 120 970.21 128.715 895.037 145.133C869.116 105.481 834.634 71.9333 794.216 47.1133C900.296 16.4939 1013.07 0 1130 0Z" fill="#F77833"/>
</svg>
